<svg xmlns="http://www.w3.org/2000/svg" viewBox="0 0 158.03 54.47"><defs><style>.cls-1{fill:#e1251b;}.cls-2{fill:#fff;}</style></defs><title>资源 1</title><g id="图层_2" data-name="图层 2"><g id="图层_1-2" data-name="图层 1"><path class="cls-1" d="M46.42,0H4.56A4.56,4.56,0,0,0,0,4.56V49.91a4.56,4.56,0,0,0,4.56,4.56H46.42A4.56,4.56,0,0,0,51,49.91V4.56A4.56,4.56,0,0,0,46.42,0"/><path class="cls-2" d="M23,12.15h5.83a1.41,1.41,0,0,0,1.4-1.41v-1a1.41,1.41,0,0,0-1.4-1.41H23a1.41,1.41,0,0,0-1.41,1.41v1A1.41,1.41,0,0,0,23,12.15"/><path class="cls-2" d="M11.8,47V44.64a1,1,0,0,1,.49-.85L29.06,33.47a2.38,2.38,0,0,1,2.54.09l8.69,6.5a1.27,1.27,0,0,1,.25,1.77L39.72,43a1.25,1.25,0,0,1-1.77.2l-6.51-4.94a2.38,2.38,0,0,0-2.55-.08L13.28,47.87A1,1,0,0,1,11.8,47"/><path class="cls-2" d="M13.46,31H37.52a1.41,1.41,0,0,0,1.41-1.41V16.27a1.41,1.41,0,0,0-1.41-1.41H13.46a1.41,1.41,0,0,0-1.41,1.41v.81a1.41,1.41,0,0,0,1.41,1.41H34.18a.76.76,0,0,1,.75.76v1.13a.76.76,0,0,1-.75.76H13.46a1.41,1.41,0,0,0-1.41,1.41v.75a1.41,1.41,0,0,0,1.41,1.4H34.18a.76.76,0,0,1,.75.76V26.6a.76.76,0,0,1-.75.75H13.46a1.41,1.41,0,0,0-1.41,1.41v.81A1.41,1.41,0,0,0,13.46,31"/><path class="cls-1" d="M102,15.63H92V11.35h10Zm1.54-6.77H90.45a1,1,0,0,0-.94,1v7.36a1,1,0,0,0,.94.94h13.07a.94.94,0,0,0,.94-.94V9.81a1,1,0,0,0-.94-1"/><path class="cls-1" d="M88.25,22.45h5.5V28.5h-5.5ZM86.71,31h8.58a1,1,0,0,0,.94-.95V20.92a.94.94,0,0,0-.94-1H86.71a.94.94,0,0,0-.94,1V30a1,1,0,0,0,.94.95"/><path class="cls-1" d="M100.16,22.45h5.51V28.5h-5.51ZM98.62,31h8.59a1,1,0,0,0,.94-.95V20.92a.94.94,0,0,0-.94-1H98.62a.94.94,0,0,0-.94,1V30a1,1,0,0,0,.94.95"/><path class="cls-1" d="M75.32,8.34H70.23A.64.64,0,0,0,69.6,9v1.21a.63.63,0,0,0,.63.63h5.09a.64.64,0,0,0,.64-.63V9a.64.64,0,0,0-.64-.64"/><path class="cls-1" d="M79.38,16.51H65.5V14.59H79.38Zm0,3.93H65.5V18.52H79.38Zm-4.61,5-8.88,3a.28.28,0,0,1-.39-.25V22.92H81.22a.64.64,0,0,0,.64-.63V12.75a.64.64,0,0,0-.64-.64H63.66a.64.64,0,0,0-.64.64V30.09a1.48,1.48,0,0,0,.68,1.24,1.47,1.47,0,0,0,1.41.11l10-3.45a1.59,1.59,0,0,1,1.3,0L82,30.67a.5.5,0,0,0,.72-.44l0-1.49a.5.5,0,0,0-.28-.46l-5.58-2.79a2.53,2.53,0,0,0-2.15-.06"/><path class="cls-1" d="M114,14h3.63a.54.54,0,0,0,.54-.54V12a.54.54,0,0,0-.54-.54h-2.28l.89-1.62a.56.56,0,0,0-.22-.74l-1.22-.67a.55.55,0,0,0-.74.22l-3.15,5.76a.55.55,0,0,0,.22.74l1.22.67a.55.55,0,0,0,.74-.22Z"/><path class="cls-1" d="M115.86,28.42v-4h1.74a.55.55,0,0,0,.54-.55V22.48a.55.55,0,0,0-.55-.54h-1.72v-3.1h1.77a.55.55,0,0,0,.54-.55V16.9a.55.55,0,0,0-.55-.54l-5.5,0a.55.55,0,0,0-.54.55v1.39a.55.55,0,0,0,.55.54h1.25V22h-1.72a.55.55,0,0,0-.54.55v1.39a.55.55,0,0,0,.55.54h1.7v5.41a1.74,1.74,0,0,0,.74,1.41,1.72,1.72,0,0,0,1,.3,1.8,1.8,0,0,0,.6-.1l2.2-.82a.54.54,0,0,0,.32-.7l-.48-1.3a.54.54,0,0,0-.7-.32l-.86.31a.23.23,0,0,1-.32-.22"/><path class="cls-1" d="M131,20.13h-3.67V18.35H131Zm-3.67,2.48H131v1.78h-3.67Zm-5.63,0h3.15v1.78H121.7Zm3.15-2.48H121.7V18.35h3.15Zm2-11.76h-1.54a.47.47,0,0,0-.47.47V11.6h-5.06a.47.47,0,0,0-.47.47v1.55a.47.47,0,0,0,.47.46h5.06v1.78h-4.78a.85.85,0,0,0-.85.85v13.8a.47.47,0,0,0,.47.47h1.54a.47.47,0,0,0,.47-.47V26.87h3.15v3.64a.47.47,0,0,0,.47.47h1.54a.47.47,0,0,0,.47-.47V26.87H131v1.81h-1.47a.47.47,0,0,0-.47.47v1.36a.47.47,0,0,0,.47.47H133a.47.47,0,0,0,.47-.47V16.33a.47.47,0,0,0-.47-.47h-5.68V14.08H133a.47.47,0,0,0,.47-.46V12.07a.47.47,0,0,0-.47-.47h-5.68V8.84a.47.47,0,0,0-.47-.47"/><path class="cls-1" d="M133.07,8.34h-3.55a.41.41,0,0,0-.4.41V9.8a.4.4,0,0,0,.4.4h3.55a.4.4,0,0,0,.41-.4V8.75a.41.41,0,0,0-.41-.41"/><path class="cls-1" d="M157.44,18.58h-8.35V17.11l5.58-5.94a1.35,1.35,0,0,0,.07-1.77,1.4,1.4,0,0,0-1.12-.51H140.43a.59.59,0,0,0-.59.59v1.3a.59.59,0,0,0,.59.59h10.65l-4,4.28a1.62,1.62,0,0,0-.45,1.12v1.81h-9.56a.58.58,0,0,0-.59.59v1.3a.59.59,0,0,0,.59.59h9.56V28.5h-4.78a.58.58,0,0,0-.59.58v1.31a.59.59,0,0,0,.59.59h5.64a1.62,1.62,0,0,0,1.62-1.62v-8.3h8.35a.59.59,0,0,0,.59-.59v-1.3a.58.58,0,0,0-.59-.59"/><path class="cls-1" d="M97.72,42.94a12.48,12.48,0,0,0-2.85-1.15c-.78-.26-1.83-.5-1.64-1.67s2.46-1.3,3.37-.39a2.26,2.26,0,0,1,.59,1s0,.14.21.13l1-.12a.18.18,0,0,0,.17-.25,3.46,3.46,0,0,0-1.74-2.43,4.62,4.62,0,0,0-4.38.33,2.8,2.8,0,0,0-1,3,2.91,2.91,0,0,0,2.25,1.87,18.17,18.17,0,0,1,2.2.73c1.06.45,1.22,1.12,1,1.74s-1,.9-2,.87A2.08,2.08,0,0,1,92.79,45c-.06-.26-.19-.25-.4-.23l-1.12.13a.22.22,0,0,0-.18.29A3.72,3.72,0,0,0,91.91,47a3.93,3.93,0,0,0,3.15,1.22A3.89,3.89,0,0,0,98,47.15a3,3,0,0,0-.25-4.21"/><path class="cls-1" d="M83.88,46.48H79.27a.34.34,0,0,1-.32-.35V43.78a.34.34,0,0,1,.32-.35h4.08a.34.34,0,0,0,.32-.35v-.82a.34.34,0,0,0-.32-.36H79.27a.34.34,0,0,1-.32-.35V39.73a.34.34,0,0,1,.32-.36H83.7A.34.34,0,0,0,84,39V38.2a.35.35,0,0,0-.33-.36H77.57a.34.34,0,0,0-.32.36v9.35c0,.19,0,.46.36.46h6.27a.34.34,0,0,0,.32-.36v-.81a.34.34,0,0,0-.32-.36"/><path class="cls-1" d="M154.72,46.48H150.1a.34.34,0,0,1-.32-.35V43.78a.34.34,0,0,1,.32-.35h4.09a.34.34,0,0,0,.32-.35v-.82a.35.35,0,0,0-.32-.36H150.1a.34.34,0,0,1-.32-.35V39.73a.35.35,0,0,1,.32-.36h4.44a.33.33,0,0,0,.32-.35V38.2a.34.34,0,0,0-.32-.36H148.4a.35.35,0,0,0-.32.36v9.35c0,.19,0,.46.36.46h6.28a.34.34,0,0,0,.32-.36v-.81a.34.34,0,0,0-.32-.36"/><path class="cls-1" d="M68.9,45.68a1.24,1.24,0,0,1-.41.44,2,2,0,0,1-.61.27,3.23,3.23,0,0,1-.81.09H65a.32.32,0,0,1-.32-.32V43.85a.32.32,0,0,1,.32-.32h1.69a5,5,0,0,1,1,.1,2.14,2.14,0,0,1,.7.3,1.2,1.2,0,0,1,.42.48,1.4,1.4,0,0,1,.15.66,1.23,1.23,0,0,1-.15.61m-4.18-6a.31.31,0,0,1,.32-.31h1.45a4.51,4.51,0,0,1,.93.08,1.65,1.65,0,0,1,.58.27,1.07,1.07,0,0,1,.32.41,1.63,1.63,0,0,1,.1.55,1.39,1.39,0,0,1-.1.53,1.14,1.14,0,0,1-.31.45,1.6,1.6,0,0,1-.53.3,2.54,2.54,0,0,1-.85.11H65a.32.32,0,0,1-.32-.32Zm5.4,3.75a2.28,2.28,0,0,0-.63-.53,2.61,2.61,0,0,0-.78-.29,2.08,2.08,0,0,0,.59-.36,2,2,0,0,0,.42-.5,2.48,2.48,0,0,0,.26-.6,3.67,3.67,0,0,0,.08-.75,2.85,2.85,0,0,0-.19-1.08,2.18,2.18,0,0,0-.59-.81,2.55,2.55,0,0,0-1-.5,5.17,5.17,0,0,0-1.49-.17H63.34a.32.32,0,0,0-.32.32v9.51a.32.32,0,0,0,.32.32h3.83a6,6,0,0,0,1-.08,4.23,4.23,0,0,0,.83-.25,2.69,2.69,0,0,0,.7-.41,2.34,2.34,0,0,0,.53-.56,2.57,2.57,0,0,0,.34-.73,2.75,2.75,0,0,0,.13-.88,2.87,2.87,0,0,0-.16-1,2.23,2.23,0,0,0-.43-.7"/><path class="cls-1" d="M112.38,37.84h-6.64a.34.34,0,0,0-.32.36V39a.34.34,0,0,0,.32.36h2.15a.33.33,0,0,1,.32.35v7.93a.34.34,0,0,0,.32.35h1.06a.34.34,0,0,0,.32-.35V39.73a.33.33,0,0,1,.32-.35h2.15a.35.35,0,0,0,.32-.36V38.2a.35.35,0,0,0-.32-.36"/><path class="cls-1" d="M138,42.23h-2.12a.34.34,0,0,1-.32-.35V39.73a.34.34,0,0,1,.32-.36h1.75a8.41,8.41,0,0,1,.91,0,1.19,1.19,0,0,1,.78.45,1.4,1.4,0,0,1,.28.92c0,1-.59,1.45-1.6,1.45m3.76,5-.86-2.12c-.1-.24-.2-.46-.29-.65a4.06,4.06,0,0,0-.32-.51,1.87,1.87,0,0,0-.36-.38,1.73,1.73,0,0,0-.43-.27,3.82,3.82,0,0,0,.76-.36,2.34,2.34,0,0,0,.59-.48,2.24,2.24,0,0,0,.37-.7,3,3,0,0,0,.13-1.12,3.2,3.2,0,0,0-.39-1.57,2.05,2.05,0,0,0-1.05-1,7.16,7.16,0,0,0-2.32-.28h-3.41a.34.34,0,0,0-.32.36v9.45a.34.34,0,0,0,.32.36h1.06a.35.35,0,0,0,.32-.36V44a.32.32,0,0,1,.32-.32h1.33a2,2,0,0,1,.77.14,1.7,1.7,0,0,1,.54.36,2.28,2.28,0,0,1,.4.56c.11.22.22.45.32.71l.9,2.28a.47.47,0,0,0,.42.29h1.16a.22.22,0,0,0,.2-.24.59.59,0,0,0,0-.17c0-.07-.07-.2-.14-.37"/><path class="cls-1" d="M125.2,45.68a2.47,2.47,0,0,1-3.89,0,4.29,4.29,0,0,1-.77-2.75,4.37,4.37,0,0,1,.75-2.76,2.44,2.44,0,0,1,2-.93,2.4,2.4,0,0,1,2,.92,4.31,4.31,0,0,1,.74,2.74,4.4,4.4,0,0,1-.76,2.79m-2-8a4.62,4.62,0,0,0-2,.41,3.45,3.45,0,0,0-1.18.91,5,5,0,0,0-.86,1.39,7.12,7.12,0,0,0-.42,2.62A5.64,5.64,0,0,0,120,46.81a4.52,4.52,0,0,0,6.51,0,5.72,5.72,0,0,0,1.21-3.86,5.71,5.71,0,0,0-1.22-3.88,4.13,4.13,0,0,0-3.26-1.4"/></g></g></svg>