<svg xmlns="http://www.w3.org/2000/svg" viewBox="0 0 400 683.83"><defs>
	<style>.cls-1{fill:#fff;}.cls-2{fill:#e1251b;}</style></defs>
	<g>
		<polygon class="cls-1" points="299.95 23.83 358.35 23.83 326.61 44.38 299.95 23.83"/>
		<path class="cls-2" d="M305.47,13.27l1.76-2.56a2.72,2.72,0,0,1,3.81-.42l14,10.6a5.12,5.12,0,0,0,5.48.19L364,.29a2.12,2.12,0,0,1,3.18,1.82V7.24a2.1,2.1,0,0,1-1.05,1.82l-36,22.17a5.11,5.11,0,0,1-5.45-.19L306,17.07a2.71,2.71,0,0,1-.55-3.8"/>
		<path class="cls-2" d="M370.94,23.83H358.35L330.45,41a7.43,7.43,0,0,1-7.93-.27L300,23.83H0v659l400,1v-660Z"/>
	</g>
</svg>