<svg xmlns="http://www.w3.org/2000/svg" viewBox="0 0 936.79 1964.23">
    <defs>
        <style>
        .cls-1 {
            fill: #e1251b;
        }
        </style>
    </defs>
    <g>
        <path class="cls-1" d="M861,42.91,811.58,73.27A14.6,14.6,0,0,1,796,72.75L756.14,42.91H1.35L0,1964.23H936l.79-1921.32Z" />
        <path class="cls-1" d="M766,23.87l3.18-4.6a4.85,4.85,0,0,1,6.85-.75l25.12,19.05a9.19,9.19,0,0,0,9.85.35L871.38.53a3.8,3.8,0,0,1,5.72,3.26V13a3.76,3.76,0,0,1-1.87,3.29L810.43,56.17a9.2,9.2,0,0,1-9.82-.33L767,30.7a4.89,4.89,0,0,1-1-6.83" />
    </g>
</svg>